<svg xmlns="http://www.w3.org/2000/svg" viewBox="0 0 260 48" fill="none">
  <defs>
    <linearGradient id="g1" x1="0" y1="1" x2="1" y2="0">
      <stop offset="0%" stop-color="#166534"/>
      <stop offset="100%" stop-color="#22c55e"/>
    </linearGradient>
    <linearGradient id="g2" x1="0" y1="0" x2="0" y2="1">
      <stop offset="0%" stop-color="#ca8a04"/>
      <stop offset="100%" stop-color="#92400e"/>
    </linearGradient>
  </defs>
  <rect x="2" y="6" width="36" height="36" rx="10" fill="url(#g1)"/>
  <path d="M18 14c-4 4-5 9-4 14 2-3 5-5 9-6-1-3-3-6-5-8z" fill="#ecfdf5" opacity=".95"/>
  <path d="M22 12c5 3 8 8 9 13-4-1-8 0-11 2 1-6-1-12 2-15z" fill="#bbf7d0" opacity=".9"/>
  <ellipse cx="18" cy="34" rx="10" ry="4" fill="url(#g2)"/>
  <text x="46" y="32" fill="#14532d" font-family="Segoe UI,system-ui,sans-serif" font-size="20" font-weight="800">TNH</text>
  <text x="102" y="32" fill="#15803d" font-family="Segoe UI,system-ui,sans-serif" font-size="20" font-weight="700" letter-spacing="0.12em">TREE</text>
</svg>
